# xmcd
#
# Track frame offsets:
#	150
#	15192
#	26420
#	45504
#	56705
#	72743
#	90046
#	108407
#	124802
#	138563
#	155535
#	171923
#	188586
#	204244
#	216934
#
# Disc length: 3100 seconds
#
# Revision: 0
# Processed by: cddbd v1.5.2PL0 Copyright (c) Steve Scherf et al.
# Submitted via: audiograbber 1.83.01
#
DISCID=c60c1a0f
DTITLE=Chartbuster Karaoke - 60145
DYEAR=2007
DGENRE=Karaoke
TTITLE0=Sammy Kershaw - National Working Woman's Holiday CB60145
TTITLE1=Sammy Kershaw - Your Tattoo CB60145
TTITLE2=Sammy Kershaw - Southbound CB60145
TTITLE3=Sammy Kershaw - If You're Gonna Walk I'm Gonna Crawl CB60145
TTITLE4=Sammy Kershaw - I CAn't Reach Her Anymore CB601445
TTITLE5=Hal Ketchum - That's What I Get For Losing You CB60145
TTITLE6=Hal Ketchum - Someplace Far Away CB60145
TTITLE7=Hal Ketchum - Tonight We Just Might Fall in Love CB60145
TTITLE8=Hal Ketchum - Stay Forever CB60145
TTITLE9=Hal Ketchum - Every Little Word CB60145
TTITLE10=Hank Williams, Jr. - If it Will it Will
TTITLE11=Wade Hayes - Old Enough to Know Better CB60145
TTITLE12=Wade Hayes - I'm Still Dancing With You CB60145
TTITLE13=Wade Hayes - Don't Stop CB60145
TTITLE14=Wade Hayes - What I Meant to Say CB60145
EXTD=
EXTT0=
EXTT1=
EXTT2=
EXTT3=
EXTT4=
EXTT5=
EXTT6=
EXTT7=
EXTT8=
EXTT9=
EXTT10=
EXTT11=
EXTT12=
EXTT13=
EXTT14=
PLAYORDER=
